<?xml version="1.0" encoding="UTF-8" standalone="no"?>
<!-- Created with Inkscape (http://www.inkscape.org/) -->

<svg
   width="49.674007mm"
   height="47.825161mm"
   viewBox="0 0 49.674007 47.825161"
   version="1.1"
   id="svg1"
   inkscape:version="1.3.2 (1:1.3.2+202311252150+091e20ef0f)"
   sodipodi:docname="logo.svg"
   xmlns:inkscape="http://www.inkscape.org/namespaces/inkscape"
   xmlns:sodipodi="http://sodipodi.sourceforge.net/DTD/sodipodi-0.dtd"
   xmlns="http://www.w3.org/2000/svg"
   xmlns:svg="http://www.w3.org/2000/svg">
  <sodipodi:namedview
     id="namedview1"
     pagecolor="#505050"
     bordercolor="#ffffff"
     borderopacity="1"
     inkscape:showpageshadow="0"
     inkscape:pageopacity="0"
     inkscape:pagecheckerboard="1"
     inkscape:deskcolor="#505050"
     inkscape:document-units="mm"
     inkscape:zoom="2.043487"
     inkscape:cx="49.91468"
     inkscape:cy="124.54202"
     inkscape:window-width="1850"
     inkscape:window-height="1011"
     inkscape:window-x="70"
     inkscape:window-y="32"
     inkscape:window-maximized="1"
     inkscape:current-layer="layer1" />
  <defs
     id="defs1" />
  <g
     inkscape:label="Layer 1"
     inkscape:groupmode="layer"
     id="layer1"
     transform="translate(-116.15206,-73.025026)">
    <g
       id="g10"
       transform="translate(-530.9101,964.47142)">
      <path
         sodipodi:type="star"
         style="fill:#0070f3;fill-opacity:1;stroke-width:0.286999"
         id="path6"
         inkscape:flatsided="true"
         sodipodi:sides="6"
         sodipodi:cx="668.66779"
         sodipodi:cy="-867.53381"
         sodipodi:r1="23.91258"
         sodipodi:r2="20.708902"
         sodipodi:arg1="0.52359878"
         sodipodi:arg2="1.0471976"
         inkscape:rounded="0.1"
         inkscape:randomized="0"
         d="m 689.37669,-855.57752 c -1.19563,2.07089 -18.31765,11.95629 -20.7089,11.95629 -2.39126,0 -19.51328,-9.8854 -20.70891,-11.95629 -1.19563,-2.07089 -1.19563,-21.84169 0,-23.91258 1.19563,-2.07089 18.31765,-11.95629 20.70891,-11.95629 2.39125,0 19.51327,9.8854 20.7089,11.95629 1.19563,2.07089 1.19563,21.84169 0,23.91258 z"
         inkscape:transform-center-x="8.424161e-06"
         inkscape:transform-center-y="1.0929559e-05" />
      <path
         sodipodi:type="star"
         style="fill:#ffffff;stroke-width:0.286999"
         id="path7"
         inkscape:flatsided="true"
         sodipodi:sides="6"
         sodipodi:cx="668.66779"
         sodipodi:cy="-867.53381"
         sodipodi:r1="23.91258"
         sodipodi:r2="20.708902"
         sodipodi:arg1="0.52359878"
         sodipodi:arg2="1.0471976"
         inkscape:rounded="0.1"
         inkscape:randomized="0"
         d="m 689.37669,-855.57752 c -1.19563,2.07089 -18.31765,11.95629 -20.7089,11.95629 -2.39126,0 -19.51328,-9.8854 -20.70891,-11.95629 -1.19563,-2.07089 -1.19563,-21.84169 0,-23.91258 1.19563,-2.07089 18.31765,-11.95629 20.70891,-11.95629 2.39125,0 19.51327,9.8854 20.7089,11.95629 1.19563,2.07089 1.19563,21.84169 0,23.91258 z"
         inkscape:transform-center-x="1.5010963e-06"
         inkscape:transform-center-y="1.0196135e-05"
         transform="matrix(0.65825633,0,0,0.65825633,228.51299,-296.47419)" />
      <path
         sodipodi:type="star"
         style="fill:#0070f3;fill-opacity:1;stroke-width:0.286999"
         id="path8"
         inkscape:flatsided="true"
         sodipodi:sides="6"
         sodipodi:cx="668.66779"
         sodipodi:cy="-867.53381"
         sodipodi:r1="23.91258"
         sodipodi:r2="20.708902"
         sodipodi:arg1="0.52359878"
         sodipodi:arg2="1.0471976"
         inkscape:rounded="0.1"
         inkscape:randomized="0"
         d="m 689.37669,-855.57752 c -1.19563,2.07089 -18.31765,11.95629 -20.7089,11.95629 -2.39126,0 -19.51328,-9.8854 -20.70891,-11.95629 -1.19563,-2.07089 -1.19563,-21.84169 0,-23.91258 1.19563,-2.07089 18.31765,-11.95629 20.70891,-11.95629 2.39125,0 19.51327,9.8854 20.7089,11.95629 1.19563,2.07089 1.19563,21.84169 0,23.91258 z"
         inkscape:transform-center-x="5.1752802e-06"
         transform="matrix(0.34715022,0,0,0.34715022,436.53962,-566.36927)" />
      <path
         id="path9"
         style="fill:#ffffff;stroke-width:0.181935"
         d="m 696.73617,-878.11344 c 0,6.2617 -5.43222,9.1936 -11.33782,11.33782 -6.26171,-1.80626 -11.33783,-5.07612 -11.33783,-11.33782 0,-6.26172 7.51157,-10.20038 11.33783,-4.62883 2.91187,-5.30347 11.33782,-1.63289 11.33782,4.62883 z"
         sodipodi:nodetypes="scscs" />
      <path
         id="path10"
         style="fill:#0070f3;fill-opacity:1;stroke-width:0.127705"
         d="m 693.3567,-877.51115 c 0,4.39527 -3.81304,6.45325 -7.95835,7.95834 -4.39528,-1.26786 -7.95836,-3.56307 -7.95836,-7.95834 0,-4.39529 5.27259,-7.15995 7.95836,-3.24912 2.04393,-3.72266 7.95835,-1.14617 7.95835,3.24912 z"
         sodipodi:nodetypes="scscs" />
    </g>
  </g>
</svg>
